<?xml version="1.0" encoding="UTF-8" standalone="no"?>
<!DOCTYPE svg PUBLIC "-//W3C//DTD SVG 1.1//EN" "http://www.w3.org/Graphics/SVG/1.1/DTD/svg11.dtd">
<svg version="1.1" xmlns="http://www.w3.org/2000/svg" xmlns:xlink="http://www.w3.org/1999/xlink" preserveAspectRatio="xMidYMid meet" viewBox="0 0 171 60" width="171" height="60"><defs><path d="M110.77 8.31C144.03 8.31 171 19.84 171 34.07C171 48.3 144.03 59.83 110.77 59.83C77.5 59.83 50.53 48.3 -0.19 34.07C50.53 19.84 77.5 8.31 110.77 8.31Z" id="d5AlDG4L6"></path><path d="M111.48 22.9C109.96 25 105.27 24.19 100.99 21.1C89.16 12.55 88.79 0.69 88.46 0.46C88.46 0.46 88.46 0.46 88.46 0.46C88.79 0.69 100.16 -2.67 112 5.89C116.27 8.98 118.5 13.19 116.98 15.29C115.46 17.39 111.2 16.9 106.92 13.81C111.2 16.9 113 20.8 111.48 22.9Z" id="emaEqESkR"></path></defs><g><g><g><use xlink:href="#d5AlDG4L6" opacity="1" fill="#000000" fill-opacity="1"></use><g><use xlink:href="#d5AlDG4L6" opacity="1" fill-opacity="0" stroke="#000000" stroke-width="0" stroke-opacity="1"></use></g></g><g><use xlink:href="#emaEqESkR" opacity="1" fill="#000000" fill-opacity="1"></use><g><use xlink:href="#emaEqESkR" opacity="1" fill-opacity="0" stroke="#84172c" stroke-width="0" stroke-opacity="1"></use></g></g></g></g></svg>