<?xml version="1.0" encoding="UTF-8" standalone="no" ?>
<!DOCTYPE svg PUBLIC "-//W3C//DTD SVG 1.1//EN" "http://www.w3.org/Graphics/SVG/1.1/DTD/svg11.dtd">
<svg xmlns="http://www.w3.org/2000/svg" xmlns:xlink="http://www.w3.org/1999/xlink" version="1.1" width="510" height="50" viewBox="0 0 170 16.67" xml:space="preserve">
<desc>Created with Fabric.js 3.6.3</desc>
<defs>
</defs>
<rect x="0" y="0" width="100%" height="100%" fill="rgba(0, 0, 0, 0)"></rect>
<g transform="matrix(1 0 0 1 515.5 244.91)" style=""  >
		<text xml:space="preserve" font-family="'Open Sans', sans-serif" font-size="20" font-style="normal" font-weight="normal" style="stroke: none; stroke-width: 1; stroke-dasharray: none; stroke-linecap: butt; stroke-dashoffset: 0; stroke-linejoin: miter; stroke-miterlimit: 4; fill: rgb(0,0,0); fill-rule: nonzero; opacity: 1; white-space: pre;" ><tspan x="-65" y="-6.83" style="white-space: pre; ">Lorem </tspan><tspan x="0.64" y="-6.83" style="font-style: italic; font-weight: bold; ">ipsum</tspan><tspan x="-65" y="19.39" style="white-space: pre; ">dolor </tspan><tspan x="-10.17" y="19.39" style="font-family: 'Impact'; fill: rgb(255,0,0); ">sit</tspan><tspan x="10.82" y="19.39" style="white-space: pre; "> amet</tspan></text>
</g>
<g transform="matrix(1 0 0 1 225.5 75.5)"  >
<linearGradient id="SVGID_13" gradientUnits="userSpaceOnUse" gradientTransform="matrix(1 0 0 1 -45 -25)"  x1="0" y1="0" x2="90" y2="0">
<stop offset="0%" style="stop-color:rgb(255,0,0);stop-opacity: 1"/>
<stop offset="100%" style="stop-color:rgb(255,165,0);stop-opacity: 1"/>
</linearGradient>
<rect style="stroke: none; stroke-width: 1; stroke-dasharray: none; stroke-linecap: butt; stroke-dashoffset: 0; stroke-linejoin: miter; stroke-miterlimit: 4; fill: url(#SVGID_13); fill-rule: nonzero; opacity: 1;"  x="-45" y="-25" rx="0" ry="0" width="90" height="50" />
</g>
<g transform="matrix(1 0 0 1 505.5 365.5)"  >
<linearGradient id="SVGID_14" gradientUnits="userSpaceOnUse" gradientTransform="matrix(1 0 0 1 -65 -65)"  x1="0" y1="0" x2="130" y2="130">
<stop offset="0%" style="stop-color:rgb(209,80,255);stop-opacity: 1"/>
<stop offset="100%" style="stop-color:rgb(0,0,255);stop-opacity: 1"/>
</linearGradient>
<circle style="stroke: none; stroke-width: 1; stroke-dasharray: none; stroke-linecap: butt; stroke-dashoffset: 0; stroke-linejoin: miter; stroke-miterlimit: 4; fill: url(#SVGID_14); fill-rule: nonzero; opacity: 1;"  cx="0" cy="0" r="65" />
</g>
<g transform="matrix(1 0 0 1 145.5 170.5)"  >
<polyline style="stroke: rgb(255,0,0); stroke-width: 1; stroke-dasharray: none; stroke-linecap: butt; stroke-dashoffset: 0; stroke-linejoin: miter; stroke-miterlimit: 4; fill: rgb(0,0,0); fill-rule: nonzero; opacity: 1;"  points="-45,-70 -5,-50 -15,-10 5,-30 45,70 -15,20 " />
</g>
<g transform="matrix(1 0 0 1 222 422)"  >
<path style="stroke: rgb(0,0,0); stroke-width: 4; stroke-dasharray: 15 15; stroke-linecap: square; stroke-dashoffset: 0; stroke-linejoin: miter; stroke-miterlimit: 4; fill: rgb(0,128,0); fill-opacity: 0.5; fill-rule: nonzero; opacity: 1;"  transform=" translate(-100, -100)" d="M 0 0 L 200 100 L 170 200 z" stroke-linecap="round" />
</g>
<g transform="matrix(1 0 0 1 405 100)"  >
	<image style="stroke: none; stroke-width: 0; stroke-dasharray: none; stroke-linecap: butt; stroke-dashoffset: 0; stroke-linejoin: miter; stroke-miterlimit: 4; fill: rgb(0,0,0); fill-rule: nonzero; opacity: 1;"  xlink:href="https://placekitten.com/110/150" x="-55" y="-75" width="110" height="150"></image>
</g>
<g transform="matrix(1 0 0 1 317.7 265.5)"  >
<path style="stroke: none; stroke-width: 1; stroke-dasharray: none; stroke-linecap: butt; stroke-dashoffset: 0; stroke-linejoin: miter; stroke-miterlimit: 4; fill: rgb(35,31,32); fill-rule: nonzero; opacity: 1;"  transform=" translate(-87.2, -75)" d="M 39.502 61.823 c -1.235 -0.902 -3.038 -3.605 -3.038 -3.605 s 0.702 0.4 3.907 1.203 c 3.205 0.8 7.444 -0.668 10.114 -1.97 c 2.671 -1.302 7.11 -1.436 9.448 -1.336 c 2.336 0.101 4.707 0.602 4.373 2.036 c -0.334 1.437 -5.742 3.94 -5.742 3.94 s 0.4 0.334 1.236 0.334 c 0.833 0 6.075 -1.403 6.542 -4.173 s -1.802 -8.377 -3.272 -9.013 c -1.468 -0.633 -4.172 0 -4.172 0 c 4.039 1.438 4.941 6.176 4.941 6.176 c -2.604 -1.504 -9.279 -1.234 -12.619 0.501 c -3.337 1.736 -8.379 2.67 -10.083 2.503 c -1.701 -0.167 -3.571 -1.036 -3.571 -1.036 c 1.837 0.034 3.239 -2.669 3.239 -2.669 s -2.068 2.269 -5.542 0.434 c -3.47 -1.837 -1.704 -8.18 -1.704 -8.18 s -2.937 5.909 -1 9.816 C 34.496 60.688 39.502 61.823 39.502 61.823 z M 77.002 40.772 c 0 0 -1.78 -5.03 -2.804 -8.546 l -1.557 8.411 l 1.646 1.602 c 0 0 0 -0.622 -0.668 -1.691 C 72.952 39.48 76.513 40.371 77.002 40.772 z M 102.989 86.943 M 102.396 86.424 c 0.25 0.22 0.447 0.391 0.594 0.519 C 102.796 86.774 102.571 86.578 102.396 86.424 z M 169.407 119.374 c -0.09 -5.429 -3.917 -3.914 -3.917 -2.402 c 0 0 -11.396 1.603 -13.086 -6.677 c 0 0 3.56 -5.43 1.69 -12.461 c -0.575 -2.163 -1.691 -5.337 -3.637 -8.605 c 11.104 2.121 21.701 -5.08 19.038 -15.519 c -3.34 -13.087 -19.63 -9.481 -24.437 -9.349 c -4.809 0.135 -13.486 -2.002 -8.011 -11.618 c 5.473 -9.613 18.024 -5.874 18.024 -5.874 c -2.136 0.668 -4.674 4.807 -4.674 4.807 c 9.748 -6.811 22.301 4.541 22.301 4.541 c -3.097 -13.678 -23.153 -14.636 -30.041 -12.635 c -4.286 -0.377 -5.241 -3.391 -3.073 -6.637 c 2.314 -3.473 10.503 -13.976 10.503 -13.976 s -2.048 2.046 -6.231 4.005 c -4.184 1.96 -6.321 -2.227 -4.362 -6.854 c 1.96 -4.627 8.191 -16.559 8.191 -16.559 c -1.96 3.207 -24.571 31.247 -21.723 26.707 c 2.85 -4.541 5.253 -11.93 5.253 -11.93 c -2.849 6.943 -22.434 25.283 -30.713 34.274 s -5.786 19.583 -4.005 21.987 c 0.43 0.58 0.601 0.972 0.62 1.232 c -4.868 -3.052 -3.884 -13.936 -0.264 -19.66 c 3.829 -6.053 18.427 -20.207 18.427 -20.207 v -1.336 c 0 0 0.444 -1.513 -0.089 -0.444 c -0.535 1.068 -3.65 1.245 -3.384 -0.889 c 0.268 -2.137 -0.356 -8.549 -0.356 -8.549 s -1.157 5.789 -2.758 5.61 c -1.603 -0.179 -2.493 -2.672 -2.405 -5.432 c 0.089 -2.758 -1.157 -9.702 -1.157 -9.702 c -0.8 11.75 -8.277 8.011 -8.277 3.74 c 0 -4.274 -4.541 -12.82 -4.541 -12.82 s 2.403 14.421 -1.336 14.421 c -3.737 0 -6.944 -5.074 -9.879 -9.882 C 78.161 5.874 68.279 0 68.279 0 c 13.428 16.088 17.656 32.111 18.397 44.512 c -1.793 0.422 -2.908 2.224 -2.908 2.224 c 0.356 -2.847 -0.624 -7.745 -1.245 -9.882 c -0.624 -2.137 -1.159 -9.168 -1.159 -9.168 c 0 2.67 -0.979 5.253 -2.048 9.079 c -1.068 3.828 -0.801 6.054 -0.801 6.054 c -1.068 -2.227 -4.271 -2.137 -4.271 -2.137 c 1.336 1.783 0.177 2.493 0.177 2.493 s 0 0 -1.424 -1.601 c -1.424 -1.603 -3.473 -0.981 -3.384 0.265 c 0.089 1.247 0 1.959 -2.849 1.959 c -2.846 0 -5.874 -3.47 -9.078 -3.116 c -3.206 0.356 -5.521 2.137 -5.698 6.678 c -0.179 4.541 1.869 5.251 1.869 5.251 c -0.801 -0.443 -0.891 -1.067 -0.891 -3.473 c 0 -2.402 2.492 -1.423 2.492 -1.423 c -0.089 4.54 2.672 4.452 2.672 4.452 c -0.98 -2.674 -0.712 -4.187 3.561 -4.008 c 4.273 0.177 5.429 7.123 5.518 9.079 c 0.091 1.96 -1.157 3.029 -2.669 3.917 c -1.515 0.892 -2.938 2.228 -5.432 2.049 c -2.492 -0.177 -1.69 -4.986 -1.69 -4.986 c -3.028 1.96 -1.692 5.7 -1.692 5.7 c -1.869 -0.18 -2.227 -3.028 -2.227 -3.028 c -0.889 1.692 -0.8 4.361 -0.177 5.429 c 0.622 1.069 -0.533 3.562 -0.533 3.562 s 1.601 -0.445 1.601 -1.247 s 1.068 -1.871 1.068 -1.871 s -0.356 1.604 -0.089 2.672 c 0.268 1.069 -1.512 1.603 -1.512 1.603 c 2.937 0.979 5.342 -2.493 6.587 -4.185 c 0.794 -1.077 5.074 -3.804 8.087 -5.65 l 0.214 0.353 c 2.603 -0.401 4.941 -1.336 4.607 0.601 s -0.867 2.67 -4.206 4.408 c -3.146 1.635 -9.545 6.532 -11.284 13.681 l -0.001 -0.061 c -0.12 0.213 -0.409 1.153 -0.706 2.568 c -0.839 -0.1 -2.799 0.303 -5.257 5.02 c -3.293 6.321 -0.98 9.081 0.179 10.148 c 0.496 0.46 1.144 1.167 1.72 1.825 c -1.119 -0.958 -3.014 -2.033 -6.082 -2.358 c -5.875 -0.622 -9.614 -0.624 -11.306 -2.672 c -1.692 -2.045 -4.184 -2.759 -5.788 -1.423 c -1.601 1.336 -5.963 3.473 -8.011 3.473 s -5.342 -1.159 -7.657 -2.226 c -2.313 -1.071 -3.56 1.512 -3.56 1.512 s -0.979 -0.179 -3.205 -0.179 c -2.225 0 -3.472 2.137 -3.472 2.137 S 0 99.169 0 102.016 c 0 2.85 2.493 3.027 2.493 3.027 s -2.849 -3.027 3.026 -4.986 c 0 0 1.603 1.246 3.828 1.246 s 2.76 0 2.76 0 s -1.069 1.336 -0.889 2.316 c 0.177 0.979 -3.205 2.403 -1.871 5.696 c 0 0 1.96 -3.65 3.116 -3.026 c 1.157 0.624 2.76 0.09 3.649 -0.712 c 0.892 -0.801 5.164 -2.582 8.013 -2.493 c 0.157 0.006 0.293 0.01 0.419 0.016 c 0.299 0.446 1.721 2.255 5.457 2.565 c 4.273 0.357 3.738 2.581 2.314 3.472 s -2.76 1.157 -2.76 1.157 s 4.985 0.445 5.698 -1.958 c 0.712 -2.402 0.445 -7.298 -3.294 -6.677 c -3.738 0.626 -4.273 0.356 -4.718 -0.445 c -0.444 -0.798 0 -1.067 2.76 -1.333 c 2.76 -0.267 5.609 -0.355 8.19 2.047 c 2.583 2.403 10.862 7.123 15.845 7.123 c 4.984 0 6.41 0.71 6.41 0.71 s -0.158 -3.636 0.908 -3.586 c 0.669 0.693 1.409 1.342 2.253 1.918 c 2.695 1.785 4.096 2.5 4.824 2.77 c -0.926 1.025 -1.909 2.373 -2.688 4.107 c -2.071 4.605 -9.415 12.686 -10.883 13.755 c -1.468 1.066 -3.539 0.466 -3.539 0.466 s 0.2 1.002 0.803 1.069 c 0.601 0.067 -3.738 0.867 -5.007 0.067 c -1.269 -0.803 -3.406 -2.004 -4.207 -3.141 c -0.801 -1.134 -2.537 0.334 -2.67 1.269 s -0.133 0.935 -0.133 0.935 s -2.672 -1.066 -3.606 -2.136 s -4.874 -1.535 -5.941 0.067 c -0.475 0.709 -0.501 0.935 -0.385 0.964 c -1.024 0.519 -3.22 2.004 -3.22 5.177 c 0 4.14 2.536 5.145 2.536 5.145 s -2.67 -3.006 1.937 -7.213 c 0 0 0.268 1.603 2.871 1.67 s 6.343 1.67 6.343 1.67 s -4.474 -0.671 -5.542 3.27 c -1.068 3.938 2.537 6.876 2.537 6.876 s -1.803 -5.007 1.203 -6.741 c 0 0 0.867 2.335 5.607 2.335 s 6.943 -4.673 11.685 -4.673 c 4.74 0 4.003 3.006 7.409 3.006 s 4.608 -2.206 4.608 -0.536 c 0 1.673 -0.335 2.136 -0.335 2.136 s 3.141 -1.066 2.539 -4.805 c -0.601 -3.741 -4.808 -3.606 -6.075 -2.537 c -1.27 1.066 -4.409 -0.601 -3.139 -1.737 c 1.269 -1.134 2.536 -0.132 2.536 -0.132 s 0.604 -2.604 2.604 -3.806 c 2.004 -1.204 11.418 -10.617 14.423 -12.284 c 1.198 -0.668 2.121 -1.403 2.808 -2.054 c 1.991 0.305 9.088 1.251 11.3 -0.352 c 0 0 7.123 0.179 8.459 -2.405 c 0 0 4.628 -0.267 6.053 -2.314 c 1.256 -1.808 4.937 -3.402 5.785 -3.754 c 0.129 1.674 -0.87 7.07 -1.868 9.941 c -1.069 3.073 2.804 7.567 4.051 9.926 c 1.246 2.358 0.622 3.428 -0.624 5.165 c -1.245 1.734 -5.741 7.21 -9.791 7.21 c -4.052 0 -4.72 -4.494 -6.143 -4.494 c -1.424 0 -1.826 2.402 -1.826 2.402 s -3.027 -3.56 -5.341 -3.56 c -2.312 0 -2.805 1.022 -2.805 1.022 c -7.565 1.737 -6.097 10.014 -6.097 10.014 c 0 -2.716 3.382 -6.363 4.408 -6.586 c 1.022 -0.226 1.868 -0.401 2.492 0.621 c 0.543 0.896 3.8 0.973 4.62 0.981 c -0.421 0.041 -1.531 0.384 -3.151 2.625 c -2.093 2.891 -0.268 6.143 -0.268 6.143 c -0.267 -2.891 3.205 -3.471 5.432 -3.295 c 2.225 0.178 7.432 -0.354 8.144 -0.979 c 0.714 -0.621 2.894 -0.935 3.738 0.047 c 0.847 0.975 6.679 0.442 9.437 1.156 c 2.76 0.713 1.068 3.871 1.068 3.871 s 4.362 -1.646 4.362 -4.45 s -3.383 -6.275 -5.341 -5.074 c -1.96 1.201 -4.897 1.512 -4.897 1.512 c 0 -2.355 8.947 -10.904 10.729 -11.616 c 1.78 -0.712 2.492 -3.205 1.068 -4.052 c -1.424 -0.844 -2.314 -2.355 -2.314 -6.407 c 0 -3.604 4.849 -8.324 5.922 -10.267 c 2.562 6.265 8.915 17.922 18.916 17.922 c 12.105 0 15.489 3.205 16.111 6.053 c 0.623 2.848 0.267 6.943 -3.561 6.943 c -3.828 0 -4.807 -2.848 -8.724 -2.848 c -2.049 -0.179 -2.139 1.336 -2.139 1.336 s -5.072 -0.803 -6.141 6.853 c 0 0 2.671 -3.114 5.964 -2.669 c 3.294 0.445 2.227 1.957 6.054 1.957 c 0 0 -5.163 4.362 0.712 8.37 c 0 0 -1.425 -3.742 1.512 -3.742 c 2.938 0 1.069 0.713 4.364 0.713 c 3.293 0 7.834 -5.071 8.101 -9.079 c 0 0 1.87 3.026 3.115 3.026 C 174.392 140.918 169.496 126.053 169.407 119.374 z M 58.93 45.222 c -1.156 0 -2.134 -1.157 -0.177 -1.336 c 2.32 -0.211 4.005 2.493 4.005 2.493 S 60.089 45.222 58.93 45.222 z M 151.469 68.1 c 2.537 0 2.804 2.136 2.804 2.136 c 3.071 -4.673 9.882 0.267 9.08 0.668 c -0.801 0.4 0.132 1.871 -0.801 1.871 c -0.935 0 -1.201 1.202 -1.201 1.202 s 2.002 -0.134 2.002 0.801 s 1.736 0.667 1.736 0.667 c -0.135 6.01 -3.872 7.078 -3.872 7.078 s 0.267 -2.004 -0.936 -1.869 c -1.201 0.132 -1.335 -2.672 -1.335 -2.672 c -1.735 0.536 -0.135 2.938 -1.603 3.073 c -1.469 0.132 -1.069 2.804 -1.069 2.804 s -4.138 0 -6.141 -0.267 c -2.004 -0.269 -2.405 -1.604 -2.137 -2.271 c 0.267 -0.668 -0.802 -1.471 -0.535 -2.139 c 0.267 -0.665 1.603 -1.467 1.603 -1.467 s 2.804 0.131 -0.135 -0.534 c -2.936 -0.667 -2.936 1.735 -4.271 1.867 c -1.09 0.11 -1.639 1.273 -1.808 1.701 c -1.791 -1.301 -3.844 -2.422 -6.183 -3.274 c 0.247 -1.129 -0.703 -0.895 -0.822 -2.432 c -0.133 -1.736 1.468 -2.938 1.468 -2.938 c -2.537 0 -4.406 2.537 -4.406 2.537 c -1.17 0 -1.767 0.923 -2.005 1.421 c -2.595 -0.352 -5.466 -0.388 -8.63 -0.048 c 3.038 -2.167 6.986 -2.485 6.986 -2.485 s -5.253 -0.624 -3.384 -5.697 c 1.23 -3.337 4.876 -5.78 7.234 -7.068 l 0.066 0.39 C 135.846 69.436 148.93 68.1 151.469 68.1 z M 96.691 77.988 c 0.036 0.436 -0.082 0.913 -0.485 1.399 C 96.432 78.702 96.571 78.262 96.691 77.988 z M 68.724 51.365 c 0.623 0.536 1.601 -0.624 3.472 0.355 c 1.869 0.98 3.917 -0.533 3.917 -0.533 l -3.116 -2.851 c -2.493 1.603 -4.185 -2.046 -2.849 -3.024 c 1.334 -0.98 2.493 -2.404 3.738 -1.159 c 1.247 1.247 -0.267 3.562 -0.267 3.562 l 2.761 2.492 c -0.268 -1.512 1.868 -2.404 1.868 -2.404 s 0.303 0.251 0.817 0.778 c -0.442 -0.144 -0.729 -0.245 -0.729 -0.245 s -1.78 0.445 -1.068 1.959 c 0.713 1.515 -3.826 3.293 -5.073 1.872 c -0.923 -1.055 -2.626 0.334 -3.328 -0.56 c -0.015 -0.018 -0.132 -0.166 -0.297 -0.371 L 68.724 51.365 z M 68.544 61.196 c 0.385 -0.237 0.744 -0.454 1.08 -0.658 C 69.102 61.035 68.762 61.201 68.544 61.196 z M 55.283 107.625 c -8.012 -0.355 -17.005 -7.744 -17.005 -7.744 c 9.615 6.677 17.983 6.853 17.983 6.853 L 55.283 107.625 z M 68.279 89.199 c 0 0 -2.08 2.858 -1.627 8.056 c -0.193 6.951 1.627 9.503 1.627 9.503 c -1.469 -2.07 -3.004 -2.403 -3.004 -2.403 s 1 0.734 2.068 1.804 c 0.36 0.359 0.628 1.057 0.828 1.819 c -2.052 -0.691 -7.307 -2.997 -9.173 -8.965 c 0 0 1.403 3.273 7.345 1.404 c 0 0 -5.742 0.865 -7.478 -3.873 c 0 0 4.875 1.268 7.21 0 c 0 0 -6.81 0.332 -8.212 -2.539 c -1.402 -2.869 -0.734 -3.738 -0.734 -3.738 s 3.072 3.203 7.879 2.669 c 0 0 -7.813 -2.201 -7.478 -6.476 c 0.059 -0.764 0.113 -1.345 0.16 -1.796 c 1.162 4.447 7.213 3.656 8.786 3.599 c 0 0 -10.214 0.267 -7.611 -8.745 c 0 0 0.199 3.005 6.41 3.14 c 0 0 -3.004 -0.27 -4.607 -2.739 c -1.604 -2.47 -0.4 -4.137 0.869 -5.941 c 0 0 0.734 3.472 4.538 4.072 c 0 0 -2.735 -1.936 -3.337 -4.072 c -0.601 -2.138 1.537 -2.872 1.537 -2.872 s 1.267 3.206 3.738 3.271 c 0 0 -3.205 -2.402 -2.738 -4.273 c 0.467 -1.869 2.137 -1.535 2.137 -1.535 s 0.533 2.804 2.402 3.07 c 0 0 -2.738 -2.738 -0.869 -4.271 c 1.871 -1.535 1.67 0.734 3.272 1.134 c 0 0 -2.404 -2.871 1 -3.806 c 3.406 -0.933 0.601 3.272 0.601 3.272 s 5.476 -2.67 4.942 -6.611 c -0.417 -3.066 -4.626 -2.931 -7.261 -1.938 l 0.073 -0.042 c -1.736 -0.788 -1.934 -3.319 -1.956 -5.001 c 0.103 0.328 0.174 0.62 0.174 0.819 c 0 1.422 1.159 2.936 2.314 3.737 c 0 0 -0.091 -1.157 2.492 -0.801 c 2.584 0.357 4.986 1.515 4.897 3.652 s -2.227 6.05 -6.231 9.437 c -3.74 3.157 -7.865 8.798 -5.429 16.121 c 0.308 -0.307 0.646 -0.582 1.03 -0.846 c 1.075 -0.733 2.017 -1.396 3.287 -1.772 c 0.319 -0.094 0.647 -0.164 0.984 -0.227 l 0.346 -0.305 l 0.004 0.001 c 0 0 2.035 0.105 4.104 0.441 C 71.923 84.294 68.279 89.199 68.279 89.199 z M 71.288 108.398 l -0.023 0.013 l 0.01 -0.009 L 71.288 108.398 z M 79.138 111.809 c -0.533 1.781 -11.571 13.175 -16.201 15.58 c -4.629 2.402 -5.518 4.717 -5.518 4.717 s -0.801 -2.224 3.826 -4.808 c 4.63 -2.578 15.668 -13.529 16.292 -16.559 c 0.624 -3.024 -1.78 -2.76 -1.78 -2.76 s 3.472 -0.8 4.361 -10.235 c 0 0 0.356 8.1 -2.225 10.057 C 77.893 107.801 79.674 110.028 79.138 111.809 z M 78.604 79.672 c 0 0 -2.581 -0.179 0.356 -3.203 c 2.938 -3.028 4.808 -5.697 4.986 -4.987 c 0.177 0.712 1.512 1.336 2.225 0.445 c 0 0 -2.048 -1.422 -0.267 -4.273 c 1.78 -2.849 5.162 -11.751 2.226 -15.845 c -2.939 -4.095 0.445 -4.095 0.445 -4.095 s -1.67 -0.268 -2.664 0.222 l -0.007 -0.044 c -0.434 -1.406 0.217 -2.382 0.796 -2.935 c 0.039 0.743 0.071 1.476 0.086 2.19 c 0.226 -0.028 0.469 -0.043 0.743 -0.043 c 0.618 0 1.11 0.078 1.132 0.081 c 0.274 0.045 0.469 0.293 0.445 0.571 c -0.021 0.276 -0.253 0.489 -0.531 0.489 c -0.009 0 -0.796 0.021 -1.031 0.481 c -0.122 0.234 -0.266 0.978 1.02 2.771 c 3.07 4.28 -0.287 13.369 -2.206 16.439 c -0.27 0.432 -0.441 0.819 -0.54 1.167 l 1.155 0.996 c 0 0 3.205 0.936 3.205 3.338 c 0 1.229 2.506 2.593 4.961 3.638 c -1.497 0.256 -5.525 0.502 -7.834 0.502 C 84.903 77.581 83.389 80.164 78.604 79.672 z M 88.111 96.574 c -0.803 -2.489 -1.91 -5.395 -3.557 -7.717 c 0.703 -1.322 1.883 -2.758 3.844 -3.396 c 4.095 -1.336 5.876 2.758 5.876 2.758 s 4.984 -4.539 7.834 -2.048 c 0 0 1.246 -4.184 5.963 -3.293 c 0 0 -0.712 -0.801 -0.8 -2.76 c -0.091 -1.958 1.155 -3.027 4.094 -3.114 c 0 0 -3.026 -3.206 -0.267 -4.453 c 2.759 -1.247 5.429 -2.49 5.429 -2.49 s -2.581 -0.535 -2.493 -2.672 c 0.09 -2.137 2.138 -4.986 7.213 -6.233 c 0 0 -3.027 -0.979 -3.027 -2.848 c 0 -1.871 3.206 -5.162 6.231 -6.676 c 0 0 -4.005 0.179 -4.362 -1.869 c -0.356 -2.047 3.65 -6.677 6.32 -7.834 c 0 0 -2.848 -0.98 -2.136 -3.828 c 0.693 -2.773 6.444 -7.991 6.752 -8.266 c -0.289 0.259 -4.795 4.269 -4.795 1.857 c 0 0 14.868 -18.34 16.558 -20.12 c 0 0 -5.25 8.367 -5.073 13.087 c 0.179 4.717 5.073 4.629 7.745 2.492 c 0 0 -5.519 7.745 -7.033 9.614 c -1.513 1.871 -1.601 7.211 2.404 7.388 c 0 0 -10.95 6.588 -7.033 15.045 c 0 0 -8.546 3.56 -9.17 9.526 c -0.71 3.204 1.603 4.094 1.603 4.094 s -5.963 2.225 -7.565 5.965 c -1.603 3.738 -0.357 7.834 -0.357 7.834 s -9.079 -1.336 -9.524 6.852 c 0 0 -8.636 -1.156 -9.614 3.65 C 99.169 97.12 92.877 91.751 88.111 96.574 z M 113.77 103.084 c -1.96 1.514 -2.138 -1.246 -2.138 -1.246 s -1.246 3.426 -2.672 4.852 c -1.424 1.425 -2.937 -0.046 -2.67 -1.646 c 0 0 -1.336 2.937 -3.381 3.829 c -2.048 0.889 -3.917 0.089 -3.384 -1.514 c 0 0 -1.069 1.868 -3.384 3.025 c -1.708 0.856 -2.783 0.06 -3.123 -0.738 c 5.446 -1.295 11.852 -5.88 15.498 -7.096 c 2.468 -0.82 4.749 -3.381 7.181 -5.243 C 115.606 98.801 115.24 101.948 113.77 103.084 z M 116.427 99.315 c -0.116 -1.029 -0.301 -1.763 -0.454 -2.219 c 1.053 -0.775 2.136 -1.406 3.276 -1.694 C 118.78 97.944 117.2 98.965 116.427 99.315 z M 120.178 97.078 c 0.152 -0.521 0.184 -1.16 0.146 -1.837 c 0.943 -0.05 1.929 0.155 2.969 0.725 c 0.233 0.125 0.441 0.26 0.656 0.391 C 122.583 99.641 119.519 99.317 120.178 97.078 z M 127.39 100.417 c -1.47 -1.336 -2.806 -2.096 -2.895 -2.982 c -0.018 -0.187 0.053 -0.402 0.156 -0.621 c 1.67 1.161 2.797 2.467 3.548 3.664 c 0.16 0.473 0.304 0.916 0.433 1.328 C 128.24 101.29 127.817 100.803 127.39 100.417 z M 166.358 122.916 c -0.068 -2.136 -0.602 -1.201 -2.271 -1.201 s -12.352 -1.939 -16.558 -6.876 c -4.205 -4.943 -8.479 -19.097 -10.615 -24.104 c -2.138 -5.009 -13.688 -5.874 -13.688 -5.874 s 11.617 -0.202 14.755 5.739 c 3.138 5.944 5.408 22.033 12.887 25.974 c 7.478 3.94 13.352 3.539 13.352 3.539 s 1.937 -1.336 2.672 1.134 c 0.734 2.47 0.535 5.007 1.068 6.741 C 167.96 127.987 166.423 125.051 166.358 122.916 z" stroke-linecap="round" />
</g>
<g transform="matrix(1.09 0 0 0.67 84.75 8.1)"  >
<path style="stroke: rgb(0,0,0); stroke-width: 1; stroke-dasharray: none; stroke-linecap: round; stroke-dashoffset: 0; stroke-linejoin: round; stroke-miterlimit: 10; fill: rgb(0,0,0); fill-rule: nonzero; opacity: 1;" vector-effect="non-scaling-stroke"  transform=" translate(-82.5, -16.83)" d="M 6.999 21 Q 7 21 7.166666666666666 21 Q 7.333333333333333 21 8.166666666666666 21 Q 9 21 9.666666666666666 20.833333333333332 Q 10.333333333333332 20.666666666666664 10.666666666666666 20.5 Q 11 20.333333333333332 11.5 20.166666666666664 Q 12 20 12.5 19.833333333333332 Q 13 19.666666666666664 13.5 19.666666666666664 Q 14 19.666666666666664 14.666666666666666 19.333333333333332 Q 15.333333333333332 19 15.833333333333332 19 Q 16.333333333333332 19 16.666666666666664 18.833333333333332 Q 17 18.666666666666664 17.5 18.5 Q 18 18.333333333333332 18.5 18.166666666666664 Q 19 18 19.333333333333332 17.833333333333332 Q 19.666666666666664 17.666666666666664 20.333333333333332 17.333333333333332 Q 21 17 21.5 16.833333333333332 Q 22 16.666666666666664 22.333333333333332 16.5 Q 22.666666666666664 16.333333333333332 23 16.333333333333332 Q 23.333333333333332 16.333333333333332 23.666666666666664 16 Q 24 15.666666666666666 24.333333333333332 15.666666666666666 Q 24.666666666666664 15.666666666666666 24.833333333333332 15.5 Q 25 15.333333333333332 25.333333333333332 15.166666666666666 Q 25.666666666666664 15 26 14.833333333333332 Q 26.333333333333332 14.666666666666666 26.5 14.666666666666666 Q 26.666666666666664 14.666666666666666 27 14.5 Q 27.333333333333332 14.333333333333332 27.833333333333332 14.166666666666666 Q 28.333333333333332 14 28.5 13.833333333333332 Q 28.666666666666664 13.666666666666666 29 13.5 Q 29.333333333333332 13.333333333333332 29.5 13.333333333333332 Q 29.666666666666664 13.333333333333332 30 13.333333333333332 Q 30.333333333333332 13.333333333333332 30.333333333333332 13.166666666666666 Q 30.333333333333332 13 30.666666666666664 13 Q 31 13 31.166666666666664 12.833333333333332 Q 31.333333333333332 12.666666666666666 31.5 12.5 Q 31.666666666666664 12.333333333333332 31.833333333333332 12.333333333333332 Q 32 12.333333333333332 32.166666666666664 12.333333333333332 Q 32.33333333333333 12.333333333333332 32.666666666666664 12.166666666666666 Q 33 12 33.166666666666664 11.833333333333332 Q 33.33333333333333 11.666666666666666 33.666666666666664 11.5 Q 34 11.333333333333332 34.33333333333333 11.166666666666666 Q 34.666666666666664 11 34.83333333333333 11 Q 35 11 35.166666666666664 11 Q 35.33333333333333 11 35.666666666666664 10.833333333333332 Q 36 10.666666666666666 36.166666666666664 10.5 Q 36.33333333333333 10.333333333333332 36.666666666666664 10.166666666666666 Q 37 10 37.166666666666664 10 Q 37.33333333333333 10 37.666666666666664 10 Q 38 10 38.5 9.666666666666666 Q 39 9.333333333333332 39.33333333333333 9.333333333333332 Q 39.666666666666664 9.333333333333332 40 9.333333333333332 Q 40.33333333333333 9.333333333333332 40.5 9.166666666666666 Q 40.666666666666664 9 41.166666666666664 9 Q 41.666666666666664 9 42 9 Q 42.33333333333333 9 42.666666666666664 8.666666666666666 Q 43 8.333333333333332 43.166666666666664 8.333333333333332 Q 43.33333333333333 8.333333333333332 43.666666666666664 8.333333333333332 Q 44 8.333333333333332 44.166666666666664 8.333333333333332 Q 44.33333333333333 8.333333333333332 44.83333333333333 8.333333333333332 Q 45.33333333333333 8.333333333333332 45.5 8.333333333333332 Q 45.666666666666664 8.333333333333332 46 8.166666666666666 Q 46.33333333333333 8 46.5 8 Q 46.666666666666664 8 47 8 Q 47.33333333333333 8 47.5 8 Q 47.666666666666664 8 48 8 Q 48.33333333333333 8 48.83333333333333 8 Q 49.33333333333333 8 49.666666666666664 8 Q 50 8 50.33333333333333 8 Q 50.666666666666664 8 51.166666666666664 8 Q 51.666666666666664 8 52 8 Q 52.33333333333333 8 52.666666666666664 8 Q 53 8 53.166666666666664 8 Q 53.33333333333333 8 53.5 8 Q 53.666666666666664 8 53.83333333333333 8 Q 54 8 54.33333333333333 8 Q 54.666666666666664 8 54.83333333333333 8.166666666666666 Q 55 8.333333333333332 55.166666666666664 8.333333333333332 Q 55.33333333333333 8.333333333333332 55.5 8.5 Q 55.666666666666664 8.666666666666666 55.83333333333333 8.666666666666666 Q 56 8.666666666666666 56.33333333333333 8.666666666666666 Q 56.666666666666664 8.666666666666666 56.83333333333333 8.666666666666666 Q 57 8.666666666666666 57.33333333333333 8.833333333333332 Q 57.666666666666664 9 57.83333333333333 9.166666666666666 Q 58 9.333333333333332 58.33333333333333 9.5 Q 58.666666666666664 9.666666666666666 58.83333333333333 9.666666666666666 Q 59 9.666666666666666 59.166666666666664 9.666666666666666 Q 59.33333333333333 9.666666666666666 59.666666666666664 10 Q 60 10.333333333333332 60.166666666666664 10.333333333333332 Q 60.33333333333333 10.333333333333332 60.5 10.333333333333332 Q 60.666666666666664 10.333333333333332 61 10.5 Q 61.33333333333333 10.666666666666666 62 11 Q 62.666666666666664 11.333333333333332 62.83333333333333 11.333333333333332 Q 63 11.333333333333332 63.33333333333333 11.333333333333332 Q 63.666666666666664 11.333333333333332 63.83333333333333 11.5 Q 64 11.666666666666666 64.33333333333333 11.666666666666666 Q 64.66666666666666 11.666666666666666 65.16666666666666 11.666666666666666 Q 65.66666666666666 11.666666666666666 65.83333333333333 12 Q 66 12.333333333333332 66.5 12.5 Q 67 12.666666666666666 67.16666666666666 12.666666666666666 Q 67.33333333333333 12.666666666666666 67.66666666666666 12.666666666666666 Q 68 12.666666666666666 68.16666666666666 12.666666666666666 Q 68.33333333333333 12.666666666666666 68.83333333333333 13 Q 69.33333333333333 13.333333333333332 69.66666666666666 13.333333333333332 Q 70 13.333333333333332 70.33333333333333 13.333333333333332 Q 70.66666666666666 13.333333333333332 70.83333333333333 13.333333333333332 Q 71 13.333333333333332 71.16666666666666 13.5 Q 71.33333333333333 13.666666666666666 71.66666666666666 13.666666666666666 Q 72 13.666666666666666 72.16666666666666 13.666666666666666 Q 72.33333333333333 13.666666666666666 72.5 13.833333333333332 Q 72.66666666666666 14 73 14 Q 73.33333333333333 14 73.83333333333333 14 Q 74.33333333333333 14 74.5 14.166666666666666 Q 74.66666666666666 14.333333333333332 74.83333333333333 14.333333333333332 Q 75 14.333333333333332 75.33333333333333 14.5 Q 75.66666666666666 14.666666666666666 76 14.833333333333332 Q 76.33333333333333 15 76.66666666666666 15 Q 77 15 77.16666666666666 15 Q 77.33333333333333 15 77.66666666666666 15 Q 78 15 78.33333333333333 15.333333333333332 Q 78.66666666666666 15.666666666666666 78.83333333333333 15.666666666666666 Q 79 15.666666666666666 79.5 15.666666666666666 Q 80 15.666666666666666 80.16666666666666 15.833333333333332 Q 80.33333333333333 16 80.83333333333333 16 Q 81.33333333333333 16 81.66666666666666 16 Q 82 16 82.33333333333333 16 Q 82.66666666666666 16 83 16 Q 83.33333333333333 16 83.5 16 Q 83.66666666666666 16 84.16666666666666 16 Q 84.66666666666666 16 85 16 Q 85.33333333333333 16 85.5 16 Q 85.66666666666666 16 85.83333333333333 16 Q 86 16 86.16666666666666 16 Q 86.33333333333333 16 86.83333333333333 16 Q 87.33333333333333 16 87.5 16 Q 87.66666666666666 16 88 16 Q 88.33333333333333 16 88.5 16 Q 88.66666666666666 16 89 16 Q 89.33333333333333 16 89.5 16 Q 89.66666666666666 16 90.16666666666666 16 Q 90.66666666666666 16 90.83333333333333 16 Q 91 16 91.33333333333333 16 Q 91.66666666666666 16 92 16 Q 92.33333333333333 16 92.83333333333333 16 Q 93.33333333333333 16 93.83333333333333 16 Q 94.33333333333333 16 94.66666666666666 16 Q 95 16 95.33333333333333 16 Q 95.66666666666666 16 96.16666666666666 16 Q 96.66666666666666 16 97 16 Q 97.33333333333333 16 97.66666666666666 16 Q 98 16 98.33333333333333 16 Q 98.66666666666666 16 98.83333333333333 16 Q 99 16 99.33333333333333 16 Q 99.66666666666666 16 99.83333333333333 16 Q 100 16 100.33333333333333 16 Q 100.66666666666666 16 100.83333333333333 15.833333333333332 Q 101 15.666666666666666 101.33333333333333 15.666666666666666 Q 101.66666666666666 15.666666666666666 101.83333333333333 15.666666666666666 Q 102 15.666666666666666 102 15.5 Q 102 15.333333333333332 102.33333333333333 15.333333333333332 Q 102.66666666666666 15.333333333333332 103 15.333333333333332 Q 103.33333333333333 15.333333333333332 103.66666666666666 15.166666666666666 Q 104 15 104.33333333333333 14.833333333333332 Q 104.66666666666666 14.666666666666666 104.83333333333333 14.666666666666666 Q 105 14.666666666666666 105.33333333333333 14.5 Q 105.66666666666666 14.333333333333332 106 14.333333333333332 Q 106.33333333333333 14.333333333333332 106.5 14.333333333333332 Q 106.66666666666666 14.333333333333332 107 14.166666666666666 Q 107.33333333333333 14 107.5 13.833333333333332 Q 107.66666666666666 13.666666666666666 108 13.666666666666666 Q 108.33333333333333 13.666666666666666 108.5 13.666666666666666 Q 108.66666666666666 13.666666666666666 109 13.5 Q 109.33333333333333 13.333333333333332 109.83333333333333 13.333333333333332 Q 110.33333333333333 13.333333333333332 110.66666666666666 13 Q 111 12.666666666666666 111.33333333333333 12.666666666666666 Q 111.66666666666666 12.666666666666666 112 12.666666666666666 Q 112.33333333333333 12.666666666666666 112.66666666666666 12.666666666666666 Q 113 12.666666666666666 113.33333333333333 12.333333333333332 Q 113.66666666666666 12 113.83333333333333 12 Q 114 12 114.33333333333333 12 Q 114.66666666666666 12 114.83333333333333 11.833333333333332 Q 115 11.666666666666666 115.16666666666666 11.666666666666666 Q 115.33333333333333 11.666666666666666 115.66666666666666 11.5 Q 116 11.333333333333332 116.33333333333333 11.333333333333332 Q 116.66666666666666 11.333333333333332 117 11.166666666666666 Q 117.33333333333333 11 117.66666666666666 11 Q 118 11 118.66666666666666 10.833333333333332 Q 119.33333333333333 10.666666666666666 119.5 10.5 Q 119.66666666666666 10.333333333333332 120.33333333333333 10.166666666666666 Q 121 10 121.33333333333333 10 Q 121.66666666666666 10 122.16666666666666 9.666666666666666 Q 122.66666666666666 9.333333333333332 123.33333333333333 9.333333333333332 Q 124 9.333333333333332 124.16666666666666 9.333333333333332 Q 124.33333333333333 9.333333333333332 124.5 9.333333333333332 Q 124.66666666666666 9.333333333333332 125 9.166666666666666 Q 125.33333333333333 9 125.5 9 Q 125.66666666666666 9 125.83333333333333 9 Q 126 9 126.33333333333333 8.833333333333332 Q 126.66666666666666 8.666666666666666 127 8.5 Q 127.33333333333333 8.333333333333332 127.5 8.333333333333332 Q 127.66666666666666 8.333333333333332 127.99999999999999 8.333333333333332 Q 128.33333333333331 8.333333333333332 128.5 8.333333333333332 Q 128.66666666666666 8.333333333333332 129.16666666666666 8.333333333333332 Q 129.66666666666666 8.333333333333332 130 8.333333333333332 Q 130.33333333333331 8.333333333333332 130.66666666666666 8.166666666666666 Q 131 8 131.33333333333331 8 Q 131.66666666666666 8 131.83333333333331 8 Q 132 8 132.5 7.833333333333333 Q 133 7.666666666666666 133.16666666666666 7.666666666666666 Q 133.33333333333331 7.666666666666666 133.5 7.666666666666666 Q 133.66666666666666 7.666666666666666 133.83333333333331 7.666666666666666 Q 134 7.666666666666666 134.16666666666666 7.666666666666666 Q 134.33333333333331 7.666666666666666 134.5 7.666666666666666 Q 134.66666666666666 7.666666666666666 135 7.666666666666666 Q 135.33333333333331 7.666666666666666 135.66666666666666 7.666666666666666 Q 136 7.666666666666666 136.33333333333331 7.666666666666666 Q 136.66666666666666 7.666666666666666 136.83333333333331 7.666666666666666 Q 137 7.666666666666666 137.33333333333331 7.666666666666666 Q 137.66666666666666 7.666666666666666 137.83333333333331 7.666666666666666 Q 138 7.666666666666666 138.5 7.666666666666666 Q 139 7.666666666666666 139.16666666666666 7.666666666666666 Q 139.33333333333331 7.666666666666666 139.5 7.666666666666666 Q 139.66666666666666 7.666666666666666 140 7.666666666666666 Q 140.33333333333331 7.666666666666666 140.5 7.666666666666666 Q 140.66666666666666 7.666666666666666 140.83333333333331 7.666666666666666 Q 141 7.666666666666666 141.33333333333331 7.666666666666666 Q 141.66666666666666 7.666666666666666 142 7.666666666666666 Q 142.33333333333331 7.666666666666666 142.66666666666666 7.666666666666666 Q 143 7.666666666666666 143.16666666666666 7.833333333333333 Q 143.33333333333331 8 143.83333333333331 8.166666666666666 Q 144.33333333333331 8.333333333333332 144.5 8.333333333333332 Q 144.66666666666666 8.333333333333332 144.83333333333331 8.333333333333332 Q 145 8.333333333333332 145.16666666666666 8.333333333333332 Q 145.33333333333331 8.333333333333332 145.66666666666666 8.5 Q 146 8.666666666666666 146.16666666666666 8.833333333333332 Q 146.33333333333331 9 146.83333333333331 9.166666666666666 Q 147.33333333333331 9.333333333333332 147.33333333333331 9.5 Q 147.33333333333331 9.666666666666666 147.5 9.666666666666666 Q 147.66666666666666 9.666666666666666 148 10 Q 148.33333333333331 10.333333333333332 148.5 10.5 Q 148.66666666666666 10.666666666666666 149.16666666666666 11 Q 149.66666666666666 11.333333333333332 149.83333333333331 11.333333333333332 Q 150 11.333333333333332 150.16666666666666 11.5 Q 150.33333333333331 11.666666666666666 150.33333333333331 11.833333333333332 Q 150.33333333333331 12 150.66666666666666 12.166666666666666 Q 151 12.333333333333332 151.33333333333331 12.5 Q 151.66666666666666 12.666666666666666 151.83333333333331 12.833333333333332 Q 152 13 152.16666666666666 13.166666666666666 Q 152.33333333333331 13.333333333333332 152.5 13.5 Q 152.66666666666666 13.666666666666666 153 13.666666666666666 Q 153.33333333333331 13.666666666666666 153.33333333333331 13.833333333333332 Q 153.33333333333331 14 153.66666666666666 14.166666666666666 Q 154 14.333333333333332 154 14.5 Q 154 14.666666666666666 154.16666666666666 14.666666666666666 Q 154.33333333333331 14.666666666666666 154.33333333333331 14.833333333333332 Q 154.33333333333331 15 154.5 15 Q 154.66666666666666 15 154.83333333333331 15.166666666666666 Q 155 15.333333333333332 155.16666666666666 15.666666666666666 Q 155.33333333333331 16 155.5 16.166666666666664 Q 155.66666666666666 16.333333333333332 155.83333333333331 16.333333333333332 Q 156 16.333333333333332 156 16.5 Q 156 16.666666666666664 156 17 Q 156 17.333333333333332 156.33333333333331 17.5 Q 156.66666666666666 17.666666666666664 156.66666666666666 18 Q 156.66666666666666 18.333333333333332 156.83333333333331 18.5 Q 157 18.666666666666664 157 19 Q 157 19.333333333333332 157 19.5 Q 157 19.666666666666664 157.16666666666666 19.833333333333332 Q 157.33333333333331 20 157.33333333333331 20.166666666666664 Q 157.33333333333331 20.333333333333332 157.5 20.5 Q 157.66666666666666 20.666666666666664 157.66666666666666 20.833333333333332 Q 157.66666666666666 21 157.83333333333331 21.166666666666664 Q 158 21.333333333333332 158 21.5 Q 158 21.666666666666664 158 21.833333333333332 Q 158 22 158 22.333333333333332 Q 158 22.666666666666664 158 22.833333333333332 Q 158 23 158 23.166666666666664 Q 158 23.333333333333332 158 23.5 Q 158 23.666666666666664 158 23.833333333333332 Q 158 24 157.83333333333331 24 Q 157.66666666666666 24 157.66666666666666 24.166666666666664 Q 157.66666666666666 24.333333333333332 157.5 24.5 Q 157.33333333333331 24.666666666666664 157.33333333333331 24.833333333333332 Q 157.33333333333331 25 157.16666666666666 25.166666666666664 Q 157 25.333333333333332 156.83333333333331 25.333333333333332 Q 156.66666666666666 25.333333333333332 156.5 25.333333333333332 Q 156.33333333333331 25.333333333333332 156.16666666666666 25.333333333333332 Q 156 25.333333333333332 155.83333333333331 25.333333333333332 Q 155.66666666666666 25.333333333333332 155.33333333333331 25.333333333333332 Q 155 25.333333333333332 154.83333333333331 25.333333333333332 Q 154.66666666666666 25.333333333333332 154.33333333333331 25.333333333333332 Q 154 25.333333333333332 153.5 25.333333333333332 Q 153 25.333333333333332 152.83333333333331 25.333333333333332 Q 152.66666666666666 25.333333333333332 152.5 25.333333333333332 Q 152.33333333333331 25.333333333333332 152 25.333333333333332 Q 151.66666666666666 25.333333333333332 151.5 25.333333333333332 Q 151.33333333333331 25.333333333333332 151.16666666666666 25.333333333333332 Q 151 25.333333333333332 150.83333333333331 25.333333333333332 Q 150.66666666666666 25.333333333333332 150.33333333333331 25.333333333333332 Q 150 25.333333333333332 149.5 25.166666666666664 Q 149 25 148.83333333333331 25 Q 148.66666666666666 25 148.33333333333331 24.833333333333332 Q 148 24.666666666666664 147.83333333333331 24.5 Q 147.66666666666666 24.333333333333332 147.5 24.333333333333332 Q 147.33333333333331 24.333333333333332 147.16666666666666 24.166666666666664 Q 147 24 146.83333333333331 24 Q 146.66666666666666 24 146.5 23.833333333333332 Q 146.33333333333331 23.666666666666664 146.16666666666666 23.5 Q 146 23.333333333333332 145.83333333333331 23.166666666666664 Q 145.66666666666666 23 145.5 23 Q 145.33333333333331 23 145.16666666666666 23 Q 145 23 144.66666666666666 22.833333333333332 Q 144.33333333333331 22.666666666666664 144.16666666666666 22.5 Q 144 22.333333333333332 144 22.166666666666664 Q 144 22 143.83333333333331 22 Q 143.66666666666666 22 143.5 22 Q 143.33333333333331 22 143.16666666666666 22 Q 143 22 142.83333333333331 21.833333333333332 Q 142.66666666666666 21.666666666666664 142.5 21.5 Q 142.33333333333331 21.333333333333332 142.16666666666666 21.166666666666664 Q 142 21 141.83333333333331 21 Q 141.66666666666666 21 141.5 21 Q 141.33333333333331 21 141.16666666666666 21 Q 141 21 140.83333333333331 21 Q 140.66666666666666 21 140.5 20.833333333333332 Q 140.33333333333331 20.666666666666664 140.16666666666666 20.666666666666664 Q 140 20.666666666666664 139.83333333333331 20.666666666666664 Q 139.66666666666666 20.666666666666664 139.5 20.666666666666664 Q 139.33333333333331 20.666666666666664 139.16666666666666 20.666666666666664 Q 139 20.666666666666664 138.83333333333331 20.666666666666664 Q 138.66666666666666 20.666666666666664 138.5 20.666666666666664 Q 138.33333333333331 20.666666666666664 138.16666666666666 20.666666666666664 Q 138 20.666666666666664 137.83333333333331 20.666666666666664 Q 137.66666666666666 20.666666666666664 137.5 20.666666666666664 Q 137.33333333333331 20.666666666666664 137.16666666666666 20.666666666666664 Q 137 20.666666666666664 136.66666666666666 20.666666666666664 Q 136.33333333333331 20.666666666666664 136.16666666666666 20.666666666666664 Q 136 20.666666666666664 135.66666666666666 20.666666666666664 Q 135.33333333333331 20.666666666666664 135 20.666666666666664 Q 134.66666666666666 20.666666666666664 134.5 20.666666666666664 Q 134.33333333333331 20.666666666666664 134.16666666666666 20.666666666666664 Q 134 20.666666666666664 133.66666666666666 20.666666666666664 Q 133.33333333333331 20.666666666666664 133.16666666666666 20.666666666666664 Q 133 20.666666666666664 132.66666666666666 20.666666666666664 Q 132.33333333333331 20.666666666666664 132.16666666666666 20.666666666666664 Q 132 20.666666666666664 131.83333333333331 20.666666666666664 Q 131.66666666666666 20.666666666666664 131.5 20.666666666666664 Q 131.33333333333331 20.666666666666664 131.16666666666666 20.666666666666664 Q 131 20.666666666666664 131 20.5 Q 131 20.333333333333332 130.83333333333331 20.333333333333332 Q 130.66666666666666 20.333333333333332 130.5 20.333333333333332 Q 130.33333333333331 20.333333333333332 130.16666666666666 20.333333333333332 Q 130 20.333333333333332 129.83333333333331 20.333333333333332 Q 129.66666666666666 20.333333333333332 129.5 20.333333333333332 Q 129.33333333333331 20.333333333333332 129 20.333333333333332 Q 128.66666666666666 20.333333333333332 128.5 20.333333333333332 Q 128.33333333333331 20.333333333333332 128.16666666666666 20.333333333333332 Q 128 20.333333333333332 127.83333333333333 20.333333333333332 Q 127.66666666666666 20.333333333333332 127.33333333333333 20.333333333333332 Q 127 20.333333333333332 126.66666666666666 20.333333333333332 Q 126.33333333333333 20.333333333333332 126.16666666666666 20.333333333333332 Q 126 20.333333333333332 125.66666666666666 20.333333333333332 Q 125.33333333333333 20.333333333333332 125.16666666666666 20.5 Q 125 20.666666666666664 124.5 20.666666666666664 Q 124 20.666666666666664 123.66666666666666 20.666666666666664 Q 123.33333333333333 20.666666666666664 123.16666666666666 20.666666666666664 Q 123 20.666666666666664 122.5 21 Q 122 21.333333333333332 121.83333333333333 21.333333333333332 Q 121.66666666666666 21.333333333333332 121.5 21.333333333333332 Q 121.33333333333333 21.333333333333332 121 21.333333333333332 Q 120.66666666666666 21.333333333333332 120.16666666666666 21.666666666666664 Q 119.66666666666666 22 119.33333333333333 22 Q 119 22 118.83333333333333 22.333333333333332 Q 118.66666666666666 22.666666666666664 118.33333333333333 22.666666666666664 Q 118 22.666666666666664 117.83333333333333 22.833333333333332 Q 117.66666666666666 23 117.5 23 Q 117.33333333333333 23 117 23.166666666666664 Q 116.66666666666666 23.333333333333332 116.5 23.333333333333332 Q 116.33333333333333 23.333333333333332 116.16666666666666 23.5 Q 116 23.666666666666664 115.83333333333333 23.666666666666664 Q 115.66666666666666 23.666666666666664 115.33333333333333 23.666666666666664 Q 115 23.666666666666664 114.83333333333333 23.833333333333332 Q 114.66666666666666 24 114.33333333333333 24 Q 114 24 113.83333333333333 24 Q 113.66666666666666 24 113.33333333333333 24.166666666666664 Q 113 24.333333333333332 112.5 24.333333333333332 Q 112 24.333333333333332 111.66666666666666 24.5 Q 111.33333333333333 24.666666666666664 111 24.666666666666664 Q 110.66666666666666 24.666666666666664 110.16666666666666 24.666666666666664 Q 109.66666666666666 24.666666666666664 109.33333333333333 24.666666666666664 Q 109 24.666666666666664 108.5 24.666666666666664 Q 108 24.666666666666664 107.66666666666666 24.833333333333332 Q 107.33333333333333 25 106.66666666666666 25.166666666666664 Q 106 25.333333333333332 105.83333333333333 25.333333333333332 Q 105.66666666666666 25.333333333333332 105.16666666666666 25.333333333333332 Q 104.66666666666666 25.333333333333332 104.33333333333333 25.333333333333332 Q 104 25.333333333333332 103.83333333333333 25.5 Q 103.66666666666666 25.666666666666664 103 25.666666666666664 Q 102.33333333333333 25.666666666666664 102 25.666666666666664 Q 101.66666666666666 25.666666666666664 101.16666666666666 25.833333333333332 Q 100.66666666666666 26 100.33333333333333 26 Q 100 26 99.66666666666666 26 Q 99.33333333333333 26 98.83333333333333 26 Q 98.33333333333333 26 97.83333333333333 26 Q 97.33333333333333 26 96.66666666666666 26 Q 96 26 95.66666666666666 26 Q 95.33333333333333 26 94.66666666666666 26 Q 94 26 93.5 26 Q 93 26 92.16666666666666 26 Q 91.33333333333333 26 91 26 Q 90.66666666666666 26 90.16666666666666 26 Q 89.66666666666666 26 89.5 26 Q 89.33333333333333 26 88.83333333333333 26 Q 88.33333333333333 26 88 26 Q 87.66666666666666 26 87.16666666666666 26 Q 86.66666666666666 26 86.33333333333333 26 Q 86 26 85.5 26 Q 85 26 84.66666666666666 26 Q 84.33333333333333 26 83.66666666666666 26 Q 83 26 82.66666666666666 26 Q 82.33333333333333 26 81.66666666666666 25.833333333333332 Q 81 25.666666666666664 80.66666666666666 25.666666666666664 Q 80.33333333333333 25.666666666666664 79.66666666666666 25.5 Q 79 25.333333333333332 78.5 25.333333333333332 Q 78 25.333333333333332 77.33333333333333 25.333333333333332 Q 76.66666666666666 25.333333333333332 75.83333333333333 25.166666666666664 Q 75 25 74.5 24.666666666666664 Q 74 24.333333333333332 73.66666666666666 24.333333333333332 Q 73.33333333333333 24.333333333333332 73 24.333333333333332 Q 72.66666666666666 24.333333333333332 72.33333333333333 24.333333333333332 Q 72 24.333333333333332 71.5 24.333333333333332 Q 71 24.333333333333332 70.66666666666666 24.166666666666664 Q 70.33333333333333 24 70.16666666666666 24 Q 70 24 69.66666666666666 23.666666666666664 Q 69.33333333333333 23.333333333333332 69.16666666666666 23.333333333333332 Q 69 23.333333333333332 68.83333333333333 23.333333333333332 Q 68.66666666666666 23.333333333333332 68.5 23.166666666666664 Q 68.33333333333333 23 68.16666666666666 23 Q 68 23 67.83333333333333 22.833333333333332 Q 67.66666666666666 22.666666666666664 67.33333333333333 22.5 Q 67 22.333333333333332 66.83333333333333 22.333333333333332 Q 66.66666666666666 22.333333333333332 66.33333333333333 22.166666666666664 Q 66 22 65.83333333333333 21.833333333333332 Q 65.66666666666666 21.666666666666664 65.5 21.5 Q 65.33333333333333 21.333333333333332 65.16666666666666 21.333333333333332 Q 65 21.333333333333332 64.83333333333333 21.166666666666664 Q 64.66666666666666 21 64.5 21 Q 64.33333333333333 21 64.16666666666666 21 Q 64 21 63.666666666666664 20.833333333333332 Q 63.33333333333333 20.666666666666664 63 20.5 Q 62.666666666666664 20.333333333333332 62.33333333333333 20.166666666666664 Q 62 20 61.666666666666664 19.833333333333332 Q 61.33333333333333 19.666666666666664 61 19.5 Q 60.666666666666664 19.333333333333332 60.5 19.333333333333332 Q 60.33333333333333 19.333333333333332 60.166666666666664 19.333333333333332 Q 60 19.333333333333332 59.666666666666664 19.333333333333332 Q 59.33333333333333 19.333333333333332 59.166666666666664 19.333333333333332 Q 59 19.333333333333332 59 19.166666666666664 Q 59 19 58.666666666666664 19 Q 58.33333333333333 19 58.166666666666664 18.833333333333332 Q 58 18.666666666666664 57.83333333333333 18.666666666666664 Q 57.666666666666664 18.666666666666664 57.33333333333333 18.5 Q 57 18.333333333333332 56.83333333333333 18.333333333333332 Q 56.666666666666664 18.333333333333332 56.33333333333333 18.333333333333332 Q 56 18.333333333333332 55.83333333333333 18.166666666666664 Q 55.666666666666664 18 55.5 18 Q 55.33333333333333 18 55.166666666666664 18 Q 55 18 54.83333333333333 18 Q 54.666666666666664 18 54.33333333333333 17.666666666666664 Q 54 17.333333333333332 53.5 17.333333333333332 Q 53 17.333333333333332 52.83333333333333 17.333333333333332 Q 52.666666666666664 17.333333333333332 52.33333333333333 17.166666666666664 Q 52 17 51.83333333333333 17 Q 51.666666666666664 17 51.5 17 Q 51.33333333333333 17 51.166666666666664 16.833333333333332 Q 51 16.666666666666664 50.83333333333333 16.666666666666664 Q 50.666666666666664 16.666666666666664 50.5 16.5 Q 50.33333333333333 16.333333333333332 50.166666666666664 16.333333333333332 Q 50 16.333333333333332 49.666666666666664 16.333333333333332 Q 49.33333333333333 16.333333333333332 49.166666666666664 16.333333333333332 Q 49 16.333333333333332 48.83333333333333 16.333333333333332 Q 48.666666666666664 16.333333333333332 48.5 16.333333333333332 Q 48.33333333333333 16.333333333333332 48.166666666666664 16.333333333333332 Q 48 16.333333333333332 47.666666666666664 16.166666666666664 Q 47.33333333333333 16 47.166666666666664 16 Q 47 16 46.666666666666664 16 Q 46.33333333333333 16 46.166666666666664 15.833333333333332 Q 46 15.666666666666666 45.83333333333333 15.666666666666666 Q 45.666666666666664 15.666666666666666 45.5 15.666666666666666 Q 45.33333333333333 15.666666666666666 45.166666666666664 15.666666666666666 Q 45 15.666666666666666 44.83333333333333 15.666666666666666 Q 44.666666666666664 15.666666666666666 44.5 15.666666666666666 Q 44.33333333333333 15.666666666666666 44 15.666666666666666 Q 43.666666666666664 15.666666666666666 43.5 15.666666666666666 Q 43.33333333333333 15.666666666666666 43.166666666666664 15.666666666666666 Q 43 15.666666666666666 42.666666666666664 15.666666666666666 Q 42.33333333333333 15.666666666666666 42.166666666666664 15.666666666666666 Q 42 15.666666666666666 41.666666666666664 15.666666666666666 Q 41.33333333333333 15.666666666666666 41.166666666666664 15.666666666666666 Q 41 15.666666666666666 40.666666666666664 15.666666666666666 Q 40.33333333333333 15.666666666666666 40.166666666666664 15.666666666666666 Q 40 15.666666666666666 39.666666666666664 15.666666666666666 Q 39.33333333333333 15.666666666666666 39.166666666666664 15.666666666666666 Q 39 15.666666666666666 38.666666666666664 15.666666666666666 Q 38.33333333333333 15.666666666666666 38.166666666666664 15.666666666666666 Q 38 15.666666666666666 37.83333333333333 15.666666666666666 Q 37.666666666666664 15.666666666666666 37.33333333333333 15.666666666666666 Q 37 15.666666666666666 36.666666666666664 15.666666666666666 Q 36.33333333333333 15.666666666666666 36 15.666666666666666 Q 35.666666666666664 15.666666666666666 35.5 15.666666666666666 Q 35.33333333333333 15.666666666666666 35.166666666666664 15.666666666666666 Q 35 15.666666666666666 34.666666666666664 15.666666666666666 Q 34.33333333333333 15.666666666666666 34 15.666666666666666 Q 33.666666666666664 15.666666666666666 33.5 15.833333333333332 Q 33.33333333333333 16 33.166666666666664 16 Q 33 16 32.666666666666664 16 Q 32.33333333333333 16 32.166666666666664 16.166666666666664 Q 32 16.333333333333332 31.833333333333332 16.333333333333332 Q 31.666666666666664 16.333333333333332 31.5 16.333333333333332 Q 31.333333333333332 16.333333333333332 31.166666666666664 16.333333333333332 Q 31 16.333333333333332 30.833333333333332 16.5 Q 30.666666666666664 16.666666666666664 30.5 16.666666666666664 Q 30.333333333333332 16.666666666666664 30 16.833333333333332 Q 29.666666666666664 17 29.5 17 Q 29.333333333333332 17 29.333333333333332 17.166666666666664 Q 29.333333333333332 17.333333333333332 29 17.333333333333332 Q 28.666666666666664 17.333333333333332 28.5 17.333333333333332 Q 28.333333333333332 17.333333333333332 27.833333333333332 17.5 Q 27.333333333333332 17.666666666666664 27 17.833333333333332 Q 26.666666666666664 18 26.5 18 Q 26.333333333333332 18 26 18 Q 25.666666666666664 18 25.666666666666664 18.166666666666664 Q 25.666666666666664 18.333333333333332 25.5 18.333333333333332 Q 25.333333333333332 18.333333333333332 25 18.333333333333332 Q 24.666666666666664 18.333333333333332 24.5 18.333333333333332 Q 24.333333333333332 18.333333333333332 24.166666666666664 18.333333333333332 Q 24 18.333333333333332 23.833333333333332 18.333333333333332 Q 23.666666666666664 18.333333333333332 23.5 18.333333333333332 Q 23.333333333333332 18.333333333333332 23.166666666666664 18.333333333333332 Q 23 18.333333333333332 22.833333333333332 18.333333333333332 Q 22.666666666666664 18.333333333333332 22.333333333333332 18.333333333333332 Q 22 18.333333333333332 21.833333333333332 18.333333333333332 Q 21.666666666666664 18.333333333333332 21.5 18.5 Q 21.333333333333332 18.666666666666664 21 18.666666666666664 Q 20.666666666666664 18.666666666666664 20.5 18.666666666666664 Q 20.333333333333332 18.666666666666664 20 18.666666666666664 Q 19.666666666666664 18.666666666666664 19.5 18.666666666666664 Q 19.333333333333332 18.666666666666664 19.166666666666664 18.666666666666664 Q 19 18.666666666666664 18.833333333333332 18.833333333333332 Q 18.666666666666664 19 18.5 19 Q 18.333333333333332 19 18.166666666666664 19 Q 18 19 17.833333333333332 19 Q 17.666666666666664 19 17.5 19 Q 17.333333333333332 19 17.166666666666664 19 Q 17 19 16.833333333333332 19 L 16.665666666666663 19" stroke-linecap="round" />
</g>
</svg>